<mxfile host="app.diagrams.net" agent="Mozilla/5.0 (Windows NT 10.0; Win64; x64) AppleWebKit/537.36 (KHTML, like Gecko) Chrome/140.0.0.0 Safari/537.36" version="28.2.5">
  <diagram name="Page-1" id="2lxO7EbtZyUlad4pOYtL">
    <mxGraphModel dx="1426" dy="751" grid="1" gridSize="10" guides="1" tooltips="1" connect="1" arrows="1" fold="1" page="1" pageScale="1" pageWidth="850" pageHeight="1100" math="0" shadow="0">
      <root>
        <mxCell id="0" />
        <mxCell id="1" parent="0" />
        <mxCell id="mEJ6w_H8EPU12mAF9A9W-1" value="IT" style="rounded=0;whiteSpace=wrap;html=1;fillColor=#ffe6cc;strokeColor=#d79b00;" vertex="1" parent="1">
          <mxGeometry x="480" y="120" width="120" height="40" as="geometry" />
        </mxCell>
        <mxCell id="mEJ6w_H8EPU12mAF9A9W-2" value="Mobiles" style="rounded=0;whiteSpace=wrap;html=1;fillColor=#ffe6cc;strokeColor=#d79b00;" vertex="1" parent="1">
          <mxGeometry x="520" y="160" width="120" height="40" as="geometry" />
        </mxCell>
        <mxCell id="mEJ6w_H8EPU12mAF9A9W-3" value="&lt;font style=&quot;font-size: 10px;&quot;&gt;Comms&lt;/font&gt;" style="rounded=0;whiteSpace=wrap;html=1;" vertex="1" parent="1">
          <mxGeometry x="640" y="160" width="120" height="10" as="geometry" />
        </mxCell>
        <mxCell id="mEJ6w_H8EPU12mAF9A9W-4" value="&lt;font style=&quot;font-size: 10px;&quot;&gt;Comms&lt;/font&gt;" style="rounded=0;whiteSpace=wrap;html=1;" vertex="1" parent="1">
          <mxGeometry x="640" y="170" width="120" height="10" as="geometry" />
        </mxCell>
        <mxCell id="mEJ6w_H8EPU12mAF9A9W-5" value="&lt;font style=&quot;font-size: 10px;&quot;&gt;Comms&lt;/font&gt;" style="rounded=0;whiteSpace=wrap;html=1;" vertex="1" parent="1">
          <mxGeometry x="640" y="180" width="120" height="10" as="geometry" />
        </mxCell>
        <mxCell id="mEJ6w_H8EPU12mAF9A9W-6" value="&lt;font style=&quot;font-size: 10px;&quot;&gt;Comms&lt;/font&gt;" style="rounded=0;whiteSpace=wrap;html=1;" vertex="1" parent="1">
          <mxGeometry x="640" y="190" width="120" height="10" as="geometry" />
        </mxCell>
      </root>
    </mxGraphModel>
  </diagram>
</mxfile>
